<svg xmlns="http://www.w3.org/2000/svg" version="1.1" xmlns:xlink="http://www.w3.org/1999/xlink" xmlns:svgjs="http://svgjs.dev/svgjs" width="1500" height="1957" viewBox="0 0 1500 1957"><g transform="matrix(1,0,0,1,-2.6940492174730934,-3.156451612903311)"><svg viewBox="0 0 190 248" data-background-color="#ffffff" preserveAspectRatio="xMidYMid meet" height="1957" width="1500" xmlns="http://www.w3.org/2000/svg" xmlns:xlink="http://www.w3.org/1999/xlink"><g id="tight-bounds" transform="matrix(1,0,0,1,0.3412462342132585,0.4000000000000057)"><svg viewBox="0 0 189.31750753157345 247.2" height="247.2" width="189.31750753157345"><g><svg viewBox="0 0 395.52 516.4474499733943" height="247.2" width="189.31750753157345"><g transform="matrix(1,0,0,1,0,278.5065312454791)"><svg viewBox="0 0 395.52 237.9409187279152" height="237.9409187279152" width="395.52"><g id="textblocktransform"><svg viewBox="0 0 395.52 237.9409187279152" height="237.9409187279152" width="395.52" id="textblock"><g><svg viewBox="0 0 395.52 237.9409187279152" height="237.9409187279152" width="395.52"><g transform="matrix(1,0,0,1,0,0)"><svg width="395.52" viewBox="1.7 -33.45 56.599999999999994 34.050000000000004" height="237.9409187279152" data-palette-color="#336a86"><path d="M10.5 0.6L10.5 0.6Q7.45 0.6 5.25-0.73 3.05-2.05 1.7-4.55L1.7-4.55 4.35-6.4Q5.5-4.45 6.93-3.55 8.35-2.65 10.2-2.65L10.2-2.65Q12.9-2.65 14.25-4.35 15.6-6.05 15.6-9.85L15.6-9.85 15.6-32.85 19.3-32.85 19.3-9.5Q19.3-6.7 18.4-4.4 17.5-2.1 15.58-0.75 13.65 0.6 10.5 0.6ZM47.3 0.6L47.3 0.6Q43.85 0.6 40.95-0.75 38.05-2.1 35.9-4.3L35.9-4.3 38.15-6.85Q39.95-4.95 42.32-3.8 44.7-2.65 47.35-2.65L47.35-2.65Q50.75-2.65 52.65-4.23 54.55-5.8 54.55-8.35L54.55-8.35Q54.55-10.1 53.8-11.18 53.05-12.25 51.8-12.98 50.55-13.7 48.95-14.4L48.95-14.4 44.2-16.5Q42.7-17.15 41.15-18.2 39.6-19.25 38.57-20.85 37.55-22.45 37.55-24.9L37.55-24.9Q37.55-27.4 38.87-29.33 40.2-31.25 42.47-32.35 44.75-33.45 47.65-33.45L47.65-33.45Q50.6-33.45 53.07-32.3 55.55-31.15 57.2-29.4L57.2-29.4 55.2-27.05Q53.75-28.5 51.87-29.35 50-30.2 47.65-30.2L47.65-30.2Q44.8-30.2 43.02-28.83 41.25-27.45 41.25-25.1L41.25-25.1Q41.25-23.45 42.1-22.4 42.95-21.35 44.22-20.68 45.5-20 46.75-19.45L46.75-19.45 51.5-17.35Q53.4-16.55 54.92-15.45 56.45-14.35 57.37-12.7 58.3-11.05 58.3-8.6L58.3-8.6Q58.3-6.05 56.97-3.95 55.65-1.85 53.17-0.63 50.7 0.6 47.3 0.6Z" opacity="1" transform="matrix(1,0,0,1,0,0)" fill="#336a86" class="wordmark-text-0" data-fill-palette-color="primary" id="text-0"></path></svg></g></svg></g></svg></g></svg></g><g transform="matrix(1,0,0,1,75.54432,0)"><svg viewBox="0 0 244.43135999999998 222.33439091586777" height="222.33439091586777" width="244.43135999999998"><g><svg xmlns="http://www.w3.org/2000/svg" xmlns:xlink="http://www.w3.org/1999/xlink" version="1.1" x="8" y="0" viewBox="4.9798609504538645 6.1814752819905605 90.04027809909228 87.6370494360189" style="enable-background:new 0 0 100 100;" xml:space="preserve" height="222.33439091586777" width="228.43135999999998" class="icon-icon-0" data-fill-palette-color="accent" id="icon-0"><g fill="#283132" data-fill-palette-color="accent"><path d="M88.4 23.6L16.1 42.9C11.4 44.2 6.5 41.4 5.3 36.7S6.8 27.1 11.5 25.9L83.9 6.5C88.6 5.2 93.5 8 94.7 12.7 96 17.5 93.2 22.3 88.4 23.6" fill="#283132" data-fill-palette-color="accent"></path><path d="M88.4 48.8L16.1 68.2C11.4 69.5 6.5 66.7 5.3 62S6.8 52.4 11.5 51.2L83.8 31.8C88.5 30.5 93.4 33.3 94.6 38 96 42.7 93.2 47.6 88.4 48.8" fill="#283132" data-fill-palette-color="accent"></path><path d="M88.4 74.1L16.1 93.5C11.4 94.8 6.5 92 5.3 87.3S6.8 77.7 11.5 76.5L83.8 57.1C88.5 55.8 93.4 58.6 94.6 63.3S93.2 72.9 88.4 74.1" fill="#283132" data-fill-palette-color="accent"></path><path d="M83.9 82.4L41.1 93.8H94.5C95.1 92.2 95.2 90.4 94.7 88.6 93.4 83.9 88.6 81.1 83.9 82.4" fill="#283132" data-fill-palette-color="accent"></path><path d="M5.5 6.2C4.9 7.8 4.8 9.6 5.3 11.4 6.6 16.1 11.4 18.9 16.1 17.6L58.9 6.2z" fill="#283132" data-fill-palette-color="accent"></path></g></svg></g></svg></g><g></g></svg></g><defs></defs></svg><rect width="189.31750753157345" height="247.2" fill="none" stroke="none" visibility="hidden"></rect></g></svg></g></svg>